<?xml version="1.0" standalone="no"?>
<!DOCTYPE svg PUBLIC "-//W3C//DTD SVG 20010904//EN"
 "http://www.w3.org/TR/2001/REC-SVG-20010904/DTD/svg10.dtd">
<svg version="1.0" xmlns="http://www.w3.org/2000/svg"
 width="300.000000pt" height="300.000000pt" viewBox="0 0 300.000000 300.000000"
 preserveAspectRatio="xMidYMid meet">

<g transform="translate(0.000000,300.000000) scale(0.100000,-0.100000)"
fill="#000000" stroke="none">
<path d="M0 1500 l0 -1500 1500 0 1500 0 0 1500 0 1500 -1500 0 -1500 0 0
-1500z m1684 910 c362 -80 617 -310 732 -660 24 -76 28 -103 32 -251 3 -144 1
-178 -16 -247 -41 -162 -116 -307 -213 -415 -33 -36 -59 -67 -59 -70 0 -2 26
-10 58 -17 31 -7 68 -17 82 -22 25 -9 25 -9 -25 -53 l-50 -43 28 -56 c34 -72
34 -80 0 -70 -16 4 -48 10 -73 13 -40 5 -45 9 -50 36 -5 26 -8 21 -19 -34
l-13 -64 -66 6 c-37 4 -119 11 -182 18 -147 14 -552 14 -695 0 -60 -6 -142
-14 -181 -18 l-72 -6 -12 56 c-12 53 -30 69 -30 26 0 -15 -7 -19 -34 -19 -18
0 -47 -5 -64 -11 -17 -6 -36 -9 -40 -7 -5 1 4 32 21 67 l31 64 -49 43 c-28 23
-48 45 -45 47 3 2 39 12 80 22 41 10 77 19 79 21 2 2 -24 33 -57 69 -149 162
-229 364 -239 600 -11 264 81 503 271 703 216 228 570 338 870 272z"/>
<path d="M1475 2358 c-33 -19 -44 -41 -45 -86 0 -55 33 -92 83 -92 43 0 81 28
72 53 -9 21 -25 23 -25 2 0 -8 -9 -19 -21 -25 -48 -26 -98 54 -65 105 19 28
63 34 72 10 8 -19 34 -20 34 -1 0 19 -39 46 -65 46 -11 0 -29 -6 -40 -12z"/>
<path d="M1263 2332 c-12 -7 -21 -187 -10 -198 3 -3 18 1 33 9 17 9 23 17 15
21 -19 12 -12 32 15 45 28 13 46 7 42 -14 -4 -18 17 -21 39 -7 9 6 -8 30 -55
80 -42 45 -71 69 -79 64z m51 -93 c-13 -22 -34 -8 -34 24 l1 32 19 -24 c11
-12 17 -27 14 -32z"/>
<path d="M1658 2253 c-23 -43 -44 -81 -46 -85 -2 -5 11 -8 28 -8 27 0 30 3 25
20 -6 18 -2 20 31 20 35 0 36 -1 31 -30 -6 -28 -5 -30 24 -30 26 0 30 3 24 18
-6 14 -35 155 -35 168 0 2 -9 4 -19 4 -14 0 -32 -23 -63 -77z m67 -31 c-2 -2
-13 -1 -24 3 -20 6 -20 7 -4 38 l17 32 7 -35 c4 -19 6 -36 4 -38z"/>
<path d="M1865 2251 c7 -23 -44 -131 -62 -131 -26 0 -12 -17 32 -38 25 -12 54
-22 64 -22 50 0 106 94 82 139 -10 18 -97 71 -116 71 -4 0 -4 -9 0 -19z m66
-41 c25 -14 25 -60 -2 -94 -21 -26 -43 -32 -67 -17 -11 6 -7 20 14 64 16 32
30 57 32 57 2 0 12 -5 23 -10z"/>
<path d="M976 2191 c-3 -5 10 -43 29 -86 19 -42 33 -80 30 -85 -13 -21 14 -17
35 5 18 20 20 25 8 25 -28 0 -28 28 -1 50 l27 21 16 -21 16 -21 19 21 c10 11
16 21 14 23 -2 1 -39 19 -82 40 -79 38 -102 44 -111 28z m94 -61 c0 -4 -6 -13
-14 -19 -12 -10 -17 -8 -25 8 -18 33 -14 42 14 29 14 -6 25 -14 25 -18z"/>
<path d="M2050 2120 c0 -24 -76 -110 -96 -110 -23 0 -15 -13 37 -59 45 -41 51
-43 66 -29 17 18 10 40 -10 32 -7 -2 -21 4 -32 15 -14 17 -15 23 -5 36 16 19
29 19 51 -1 10 -9 23 -13 30 -8 9 5 4 14 -17 30 -27 22 -28 25 -12 40 16 16
18 16 43 0 14 -9 23 -21 20 -26 -13 -21 7 -31 26 -14 19 17 18 19 -33 65 -60
54 -68 58 -68 29z"/>
<path d="M1435 2089 c-275 -27 -497 -232 -551 -508 -11 -57 -15 -106 -10 -152
l6 -67 -34 -21 c-37 -23 -46 -39 -46 -77 0 -22 3 -23 20 -14 11 6 31 32 45 58
17 33 24 41 25 26 0 -40 41 -138 82 -202 59 -90 157 -176 253 -222 101 -48
164 -62 275 -62 112 0 174 14 279 64 118 56 223 161 279 279 50 106 66 171 66
279 0 169 -61 317 -179 435 -140 140 -316 203 -510 184z m296 -395 c112 -42
208 -81 214 -86 13 -12 -5 -23 -81 -48 l-61 -21 5 -57 c2 -31 10 -64 17 -72 7
-8 11 -20 8 -26 -5 -14 42 -52 74 -60 29 -8 29 -18 1 -36 -55 -36 -67 -33 -90
19 -11 26 -27 51 -34 56 -10 5 -12 24 -8 70 8 96 5 97 -135 43 -66 -25 -130
-46 -141 -46 -15 0 -283 96 -433 155 -10 4 -16 12 -14 18 5 15 406 165 443
166 17 1 123 -33 235 -75z m-351 -259 c50 -19 104 -35 119 -35 16 0 72 16 125
36 53 20 103 33 111 30 16 -6 21 -110 7 -133 -14 -22 -200 -93 -244 -93 -39 0
-192 56 -225 83 -19 14 -18 147 1 147 8 0 56 -16 106 -35z"/>
<path d="M1765 1631 c17 -11 30 -26 30 -32 0 -7 -53 -35 -118 -62 -64 -28
-116 -51 -114 -53 3 -3 282 102 300 113 9 6 -46 31 -103 47 -23 7 -23 6 5 -13z"/>
<path d="M1850 1321 c6 -12 20 -21 32 -21 12 0 19 1 17 3 -2 2 -17 11 -32 21
-28 17 -28 17 -17 -3z"/>
<path d="M810 2013 c-35 -54 -36 -62 -12 -60 25 1 114 -54 120 -75 8 -32 19
-21 51 46 2 5 -5 7 -16 4 -11 -3 -27 1 -37 8 -24 17 -4 59 25 50 10 -3 28 -9
38 -12 13 -4 23 1 30 14 9 18 6 20 -30 26 -22 4 -44 4 -48 2 -5 -3 -13 6 -19
19 -9 19 -19 25 -42 25 -25 0 -35 -8 -60 -47z m78 -8 c1 -11 -2 -26 -7 -33 -7
-12 -12 -12 -30 -1 -24 16 -27 29 -9 47 18 18 43 10 46 -13z"/>
<path d="M2189 1975 c-1 -5 -1 -13 0 -17 1 -12 -102 -78 -121 -78 -22 0 -23
-9 -2 -38 17 -24 34 -29 34 -9 0 12 29 38 68 61 19 11 15 4 -28 -54 -23 -31
-36 -58 -31 -63 4 -4 35 -1 71 8 34 9 64 14 66 12 8 -7 -82 -51 -99 -48 -15 2
-17 -1 -8 -16 5 -10 17 -27 25 -38 16 -20 16 -20 22 2 8 27 101 89 127 85 18
-4 18 -2 -2 27 -12 17 -23 31 -24 31 -1 0 -27 -7 -57 -15 -82 -22 -84 -20 -40
38 22 30 40 58 40 63 -1 14 -39 60 -41 49z"/>
<path d="M855 1850 c-16 -4 -51 -8 -77 -9 -98 -2 -104 -29 -17 -85 34 -22 68
-46 76 -54 13 -13 16 -13 24 -1 13 21 11 50 -3 48 -31 -4 -36 1 -29 29 6 21
13 27 34 25 18 -1 27 4 31 20 11 41 12 40 -39 27z m-45 -54 c0 -24 -15 -26
-46 -5 l-29 19 38 0 c26 0 37 -4 37 -14z"/>
<path d="M666 1684 c-17 -44 -9 -49 70 -50 51 0 78 -5 84 -13 12 -20 30 -4 30
27 0 27 0 27 -77 28 -50 0 -78 4 -81 12 -5 17 -19 15 -26 -4z"/>
<path d="M2278 1645 c-36 -42 -97 -73 -109 -54 -14 23 -21 3 -13 -37 6 -34 8
-36 20 -19 16 21 82 17 134 -9 40 -19 44 -17 35 23 -6 28 -25 44 -25 21 0 -9
-5 -9 -45 5 -19 6 -19 7 3 25 13 11 30 16 37 13 16 -6 19 8 9 45 -8 29 -13 27
-46 -13z"/>
<path d="M644 1555 c-6 -14 1 -83 13 -132 6 -26 43 -32 43 -8 0 8 -4 15 -10
15 -5 0 -10 9 -10 19 0 16 11 21 63 28 34 4 64 5 65 1 2 -5 9 -8 16 -8 8 0 11
12 8 35 -3 21 -10 35 -18 35 -8 0 -14 -4 -14 -9 0 -6 -21 -13 -47 -16 -27 -4
-56 -9 -67 -12 -17 -5 -18 -1 -12 31 6 29 4 36 -9 36 -9 0 -18 -7 -21 -15z"/>
<path d="M2130 1350 c0 -40 58 -119 79 -106 5 3 11 2 13 -4 5 -17 66 27 83 61
l17 32 -29 -7 c-15 -4 -39 -18 -53 -31 l-25 -24 -13 27 c-12 29 -72 72 -72 52z"/>
<path d="M707 1299 c20 -35 69 -76 79 -66 14 14 -8 59 -39 77 -49 30 -63 26
-40 -11z"/>
<path d="M858 1225 c-15 -14 -30 -36 -34 -49 l-6 -24 -35 24 c-35 24 -73 32
-73 16 0 -17 82 -82 104 -82 3 0 6 7 6 16 0 8 4 13 9 10 15 -9 52 40 58 78 3
20 4 36 2 36 -2 0 -16 -11 -31 -25z"/>
<path d="M2120 1226 c0 -34 36 -96 56 -96 8 0 14 -4 14 -9 0 -19 60 11 85 41
14 17 24 33 21 35 -11 12 -68 -11 -86 -34 -19 -25 -20 -25 -20 -4 0 12 -16 38
-35 59 l-34 37 -1 -29z"/>
<path d="M2100 1117 c0 -40 18 -85 44 -106 20 -17 75 1 106 34 l23 25 -34 0
c-19 0 -44 -7 -56 -15 -19 -13 -21 -13 -26 13 -4 15 -17 41 -31 57 l-25 30 -1
-38z"/>
<path d="M877 1116 c-9 -13 -19 -36 -23 -50 -6 -26 -7 -26 -30 -11 -13 8 -38
15 -56 15 l-33 -1 32 -29 c44 -39 76 -47 101 -23 28 26 42 57 42 92 0 37 -12
40 -33 7z"/>
<path d="M921 1010 c-14 -23 -20 -44 -17 -63 6 -27 5 -27 -16 -12 -25 17 -113
21 -103 5 11 -17 83 -50 109 -50 39 0 75 84 57 132 -8 23 -9 22 -30 -12z"/>
<path d="M2054 1016 c-7 -30 13 -95 32 -103 8 -3 11 -9 8 -14 -8 -14 44 -10
75 5 15 8 33 22 40 30 12 14 9 16 -26 16 -21 0 -49 -7 -61 -16 -22 -15 -23
-15 -17 9 7 24 -14 79 -35 92 -5 3 -12 -5 -16 -19z"/>
<path d="M993 910 c-26 -39 -28 -61 -11 -93 10 -19 7 -18 -21 6 -33 27 -65 34
-89 19 -21 -14 22 -44 72 -49 42 -5 45 -4 61 26 10 20 15 50 13 79 l-3 47 -22
-35z"/>
<path d="M1992 883 c5 -72 19 -93 62 -93 36 0 100 35 91 50 -15 24 -85 5 -113
-29 -11 -14 -11 -12 -2 7 14 29 6 69 -21 102 l-20 25 3 -62z"/>
<path d="M1052 845 c-16 -35 -15 -67 3 -91 13 -16 16 -17 25 -4 14 21 12 83
-3 104 -12 17 -14 16 -25 -9z"/>
<path d="M1924 835 c-7 -40 1 -91 17 -112 16 -18 67 -16 108 6 33 18 33 18 10
24 -42 12 -82 7 -102 -10 -20 -18 -20 -18 -2 14 16 28 17 37 6 72 -15 50 -28
52 -37 6z"/>
<path d="M1140 760 c-11 -41 -5 -65 23 -89 12 -9 15 -6 19 21 6 35 -7 94 -22
103 -5 3 -14 -13 -20 -35z"/>
<path d="M1835 766 c-16 -37 -13 -96 5 -96 29 0 41 60 22 110 -10 25 -10 25
-27 -14z"/>
<path d="M1324 769 c-4 -7 2 -9 17 -7 36 5 30 -24 -8 -41 -18 -8 -33 -18 -33
-21 0 -12 51 -30 63 -23 7 4 2 9 -13 13 l-25 6 33 17 c17 10 32 23 32 30 0 30
-51 50 -66 26z"/>
<path d="M1616 740 c-21 -52 -21 -52 9 -44 20 5 24 3 19 -9 -4 -12 -1 -14 14
-10 19 5 19 7 4 54 -9 27 -19 49 -23 49 -4 0 -14 -18 -23 -40z m20 -27 c-10
-10 -19 5 -10 18 6 11 8 11 12 0 2 -7 1 -15 -2 -18z"/>
<path d="M940 750 c-12 -7 -7 -12 22 -25 41 -17 76 -19 97 -6 10 7 8 12 -10
25 -26 18 -85 21 -109 6z"/>
<path d="M1422 748 c-6 -6 -12 -29 -12 -50 0 -34 3 -38 25 -38 29 0 48 29 43
68 -3 30 -35 41 -56 20z m38 -31 c0 -29 -15 -51 -29 -43 -10 6 -6 47 6 69 8
13 23 -4 23 -26z"/>
<path d="M1510 745 c-8 -9 -8 -15 -2 -15 6 0 14 5 17 10 10 16 25 11 25 -8 0
-11 -9 -27 -20 -37 -29 -26 -25 -35 15 -35 19 0 35 5 35 10 0 6 -11 8 -27 4
l-28 -7 23 26 c13 14 22 33 20 44 -4 23 -41 29 -58 8z"/>
<path d="M1226 695 c-9 -44 -1 -72 25 -85 17 -10 19 -7 19 29 0 44 -15 91 -29
91 -5 0 -12 -16 -15 -35z"/>
<path d="M1750 711 c-16 -30 -13 -112 4 -105 22 8 37 53 30 90 -7 38 -18 43
-34 15z"/>
<path d="M953 662 c17 -18 51 -45 75 -59 23 -14 42 -26 42 -28 0 -2 -24 -11
-52 -19 -29 -9 -64 -23 -78 -32 -24 -14 -22 -15 35 -10 33 3 122 11 198 17 75
7 135 14 132 17 -2 3 -28 10 -57 18 -49 11 -50 12 -18 13 l35 2 -24 19 c-26
23 -58 25 -96 8 -23 -10 -37 -6 -125 38 l-100 50 33 -34z"/>
<path d="M1872 674 c-18 -7 -32 -18 -32 -24 0 -15 103 -12 126 4 18 14 18 15
-11 21 -17 4 -35 8 -41 10 -5 1 -24 -3 -42 -11z"/>
<path d="M1968 643 c-71 -36 -91 -42 -107 -34 -30 17 -73 13 -101 -9 l-25 -20
30 -1 c26 -1 23 -3 -18 -14 -27 -7 -51 -15 -53 -18 -2 -2 58 -9 133 -15 76 -7
163 -15 193 -18 49 -5 53 -4 37 9 -9 8 -42 22 -72 32 -30 9 -55 18 -55 19 0 2
21 17 48 33 47 31 104 85 86 81 -5 -1 -48 -21 -96 -45z"/>
<path d="M1041 671 c-23 -14 20 -31 80 -31 51 0 52 0 34 20 -19 21 -87 28
-114 11z"/>
</g>
</svg>
