<?xml version="1.0" standalone="no"?>
<!DOCTYPE svg PUBLIC "-//W3C//DTD SVG 20010904//EN"
 "http://www.w3.org/TR/2001/REC-SVG-20010904/DTD/svg10.dtd">
<svg version="1.0" xmlns="http://www.w3.org/2000/svg"
 width="1024.000000pt" height="1024.000000pt" viewBox="0 0 1024.000000 1024.000000"
 preserveAspectRatio="xMidYMid meet">

<g transform="translate(0.000000,1024.000000) scale(0.100000,-0.100000)"
fill="#000000" stroke="none">
<path d="M5061 8075 c-55 -17 -97 -57 -127 -120 -31 -64 -31 -125 0 -190 21
-46 70 -99 112 -123 16 -9 16 -14 1 -81 -45 -199 -172 -412 -364 -611 l-82
-85 97 0 c53 0 113 -3 133 -8 34 -7 38 -5 57 25 11 18 39 58 62 88 22 30 52
79 65 108 14 29 40 75 59 102 19 28 40 67 47 87 l12 36 27 -61 c27 -59 149
-244 228 -347 l38 -50 55 5 c30 3 88 5 130 5 49 0 75 4 72 10 -2 6 -37 41 -78
78 -169 153 -343 437 -389 637 l-14 60 26 14 c40 21 99 86 117 128 35 85 8
188 -66 251 -64 55 -133 68 -218 42z m71 -92 c25 -22 23 -50 -8 -90 -43 -56
-114 -35 -114 35 0 55 81 92 122 55z"/>
<path d="M4046 7515 c-98 -35 -153 -143 -126 -246 11 -40 58 -96 122 -146 12
-9 18 -45 23 -160 11 -203 -1 -688 -21 -858 -15 -136 -31 -602 -21 -628 4 -11
24 -10 106 2 l101 15 -5 36 c-13 97 -17 561 -6 800 11 250 5 539 -15 746 -6
60 -5 61 29 90 96 80 111 203 34 291 -58 66 -139 88 -221 58z m79 -109 c8 -33
6 -40 -10 -52 -39 -29 -105 -6 -105 37 0 25 49 61 79 57 21 -2 28 -11 36 -42z"/>
<path d="M6098 7510 c-154 -28 -209 -249 -87 -353 l41 -35 -13 -174 c-9 -128
-10 -296 -3 -648 5 -261 7 -549 6 -640 l-3 -166 101 -13 c56 -7 103 -11 106
-9 7 7 -14 375 -36 633 -43 513 -49 794 -19 947 10 49 16 60 49 82 50 33 85
81 100 134 36 137 -95 269 -242 242z m40 -82 c29 -29 -8 -98 -53 -98 -46 0
-58 41 -24 84 22 27 57 34 77 14z"/>
<path d="M3079 7216 c-88 -31 -123 -77 -127 -171 -3 -59 0 -77 20 -114 37 -69
87 -104 157 -109 l58 -4 57 -92 c138 -218 291 -586 360 -861 21 -86 54 -296
61 -397 4 -49 8 -88 8 -88 1 0 34 11 72 25 39 13 86 25 106 25 l36 0 -19 113
c-57 337 -102 516 -169 666 -96 213 -251 472 -357 596 -29 33 -52 65 -52 70 0
6 11 32 25 59 30 60 32 124 6 181 -45 98 -140 138 -242 101z m53 -83 c26 -23
22 -60 -8 -88 -33 -30 -38 -31 -64 -5 -26 26 -25 58 2 87 25 27 45 29 70 6z"/>
<path d="M7035 7208 c-33 -18 -86 -71 -102 -102 -24 -46 -19 -135 10 -196 l26
-53 -70 -76 c-91 -99 -184 -240 -275 -415 -118 -231 -174 -417 -219 -741 -30
-213 -31 -207 44 -221 20 -4 60 -15 90 -25 30 -11 55 -19 56 -19 1 0 5 55 9
123 17 321 107 676 237 937 103 208 126 248 177 312 53 67 53 67 101 65 118
-5 225 146 192 270 -13 49 -41 86 -94 124 -34 25 -49 29 -101 29 -34 0 -70 -6
-81 -12z m65 -68 c25 -25 25 -41 -1 -74 -35 -44 -79 -25 -79 33 0 22 32 61 50
61 6 0 19 -9 30 -20z"/>
<path d="M6472 6905 c-7 -14 -12 -32 -12 -39 0 -32 -40 -64 -88 -71 -61 -8
-76 -17 -68 -43 5 -13 19 -22 44 -26 87 -15 90 -17 101 -48 6 -17 11 -46 11
-64 0 -19 4 -34 9 -34 5 0 16 -3 25 -6 11 -4 19 8 32 53 20 72 26 78 94 101
76 26 76 45 1 66 -69 19 -79 29 -89 87 -9 54 -41 66 -60 24z"/>
<path d="M4600 6250 l0 -421 93 7 c113 7 256 -15 327 -51 27 -14 54 -25 60
-25 7 0 9 123 8 388 l-3 387 -85 44 c-105 55 -222 87 -322 90 l-77 2 -1 -421z"/>
<path d="M5496 6659 c-72 -12 -140 -35 -233 -80 l-83 -40 0 -389 c0 -215 4
-390 9 -390 4 0 38 14 75 30 103 47 248 60 372 35 l31 -7 2 426 1 426 -62 -1
c-35 -1 -85 -5 -112 -10z"/>
<path d="M4414 6128 c3 -244 5 -463 5 -487 l1 -43 284 7 284 8 55 -32 c69 -39
106 -39 169 -1 27 17 59 30 71 31 29 0 517 -21 540 -24 16 -2 17 26 20 486 l2
487 -52 0 -51 0 1 -421 2 -420 -90 6 c-49 3 -149 2 -222 -3 -120 -7 -137 -11
-192 -40 -84 -44 -129 -43 -222 6 l-72 37 -208 -2 c-115 -1 -210 -1 -211 0 -1
1 -4 191 -8 422 l-5 420 -53 3 -53 3 5 -443z"/>
<path d="M4915 5370 c-379 -8 -473 -16 -753 -61 -375 -61 -492 -110 -492 -204
0 -74 77 -136 190 -155 540 -89 613 -94 1295 -95 610 0 815 9 1035 46 288 49
400 107 400 207 0 64 -62 100 -283 161 -105 29 -283 59 -482 80 -96 11 -498
32 -540 29 -11 -1 -177 -5 -370 -8z m865 -195 c463 -33 535 -51 350 -88 -277
-56 -983 -74 -1462 -37 -299 23 -369 32 -515 65 -33 8 -28 22 10 29 32 5 438
33 572 39 234 10 861 5 1045 -8z"/>
<path d="M6819 5245 c-14 -8 -39 -31 -55 -52 -54 -71 -32 -178 47 -231 28 -20
42 -23 82 -18 59 6 99 34 132 90 29 50 31 75 9 119 -47 93 -140 133 -215 92z
m131 -41 c34 -30 60 -73 60 -103 0 -31 -39 -90 -71 -106 -38 -20 -89 -20 -89
1 0 51 47 71 74 32 26 -37 37 -9 16 37 -17 35 -17 41 -5 51 28 21 10 64 -26
64 -14 0 -16 -8 -11 -45 3 -27 1 -45 -6 -45 -13 0 -24 47 -17 71 5 15 1 19
-18 19 -24 0 -24 0 -23 -101 l1 -101 -22 26 c-26 31 -47 99 -39 131 3 12 15
34 27 49 41 52 101 60 149 20z"/>
<path d="M4780 4461 c-6 -12 -35 -80 -64 -153 -30 -73 -108 -266 -174 -430
-66 -163 -134 -325 -151 -361 -36 -75 -85 -123 -136 -133 -31 -6 -35 -10 -35
-38 l0 -31 193 1 c187 1 192 2 195 22 3 16 -6 26 -35 39 -61 29 -63 54 -17
173 l39 101 198 1 c110 0 202 -4 206 -8 4 -5 24 -51 44 -102 40 -102 39 -127
-8 -158 -15 -10 -25 -26 -25 -40 l0 -23 230 -3 231 -3 -3 24 c-2 20 -14 29
-55 46 -65 26 -94 53 -121 113 -36 79 -225 527 -296 702 -36 91 -79 190 -95
220 -26 52 -31 55 -69 58 -33 2 -43 -1 -52 -17z m90 -476 c34 -88 64 -170 67
-182 l5 -23 -140 0 c-78 0 -143 4 -146 8 -4 7 31 105 114 315 13 32 27 54 31
50 5 -5 36 -80 69 -168z"/>
<path d="M7595 4473 c-29 -4 -33 -12 -114 -206 -46 -111 -132 -321 -191 -467
-59 -146 -115 -281 -125 -300 -33 -67 -98 -120 -145 -120 -16 0 -20 -6 -20
-33 l0 -33 205 1 205 0 0 22 c0 16 -11 28 -40 43 -64 32 -70 57 -36 149 16 42
31 86 33 99 l5 22 207 -2 206 -3 32 -90 c18 -49 33 -102 33 -116 0 -26 -21
-51 -52 -62 -11 -4 -18 -17 -18 -32 l0 -25 133 0 c74 0 175 -3 225 -6 l92 -7
0 35 c0 32 -3 36 -32 42 -52 10 -95 42 -119 88 -12 24 -55 124 -95 223 -70
173 -104 257 -246 595 -35 85 -67 163 -71 173 -6 17 -13 18 -72 10z m34 -421
c19 -53 49 -133 68 -177 18 -44 33 -81 33 -82 0 -2 -68 -3 -151 -3 -117 0
-150 3 -146 13 3 6 35 83 71 170 71 171 74 177 84 177 4 0 22 -44 41 -98z"/>
<path d="M2120 4425 c0 -22 -7 -85 -15 -139 -8 -55 -13 -101 -11 -104 2 -2 22
-6 44 -9 38 -5 40 -4 51 29 24 74 73 97 219 107 l102 6 0 -438 0 -439 -31 -29
c-17 -16 -39 -29 -48 -29 -24 0 -29 -7 -23 -35 l4 -24 219 -3 219 -3 0 31 c0
27 -4 31 -42 40 -27 6 -49 19 -62 37 -21 28 -21 38 -21 458 l0 429 80 0 c44 0
98 -5 120 -11 49 -13 102 -62 110 -101 6 -25 11 -28 47 -28 l41 0 -7 53 c-3
28 -6 95 -6 147 l0 95 -495 0 -495 0 0 -40z"/>
<path d="M3466 4448 c-6 -25 15 -48 44 -48 21 0 55 -37 69 -73 7 -18 10 -174
8 -457 l-2 -428 -24 -26 c-14 -15 -38 -30 -54 -34 -15 -4 -28 -11 -28 -15 1
-4 1 -16 1 -27 0 -19 7 -20 230 -20 l230 0 0 23 c0 18 -10 26 -49 40 -89 31
-86 13 -89 487 -2 271 0 427 7 451 13 44 40 69 83 78 28 6 33 11 36 39 l3 32
-229 0 -230 0 -6 -22z"/>
<path d="M5743 4463 c-36 -7 -31 -49 6 -56 43 -9 81 -47 91 -92 13 -55 13
-826 0 -860 -14 -36 -58 -75 -86 -75 -20 0 -24 -5 -24 -30 l0 -30 230 0 c221
0 230 1 230 19 0 22 -11 31 -55 46 -16 6 -40 25 -52 44 -21 31 -23 45 -23 177
l0 144 50 2 c28 1 58 2 67 2 19 1 40 -28 161 -223 42 -69 95 -144 117 -169
l40 -44 143 -5 c154 -6 162 -4 162 44 0 16 -8 23 -32 28 -78 17 -101 38 -227
210 -115 156 -144 214 -108 215 46 2 176 149 196 223 8 26 12 78 10 119 -4 63
-9 83 -39 132 -42 70 -113 127 -196 158 -55 20 -78 22 -349 23 -159 1 -300 0
-312 -2z m551 -162 c87 -38 145 -138 132 -225 -8 -53 -57 -138 -95 -165 -38
-27 -122 -43 -208 -39 -63 3 -68 5 -67 26 0 12 1 115 2 228 l2 207 97 -7 c58
-4 113 -14 137 -25z"/>
<path d="M6279 2875 c-34 -60 -64 -114 -68 -118 -5 -4 -36 41 -69 102 l-62
109 -50 4 -50 3 0 -215 0 -215 42 0 c52 0 59 11 53 97 -2 35 -1 81 4 103 l7
40 47 -82 c26 -44 53 -86 60 -92 10 -8 29 14 79 91 l66 101 7 -132 7 -131 47
0 46 0 0 219 0 219 -53 4 -53 3 -60 -110z"/>
<path d="M3524 2973 c-7 -5 -28 -39 -47 -78 -37 -72 -149 -337 -144 -341 1 -1
24 -4 52 -5 49 -3 49 -3 56 30 4 18 11 36 15 41 5 4 49 10 97 14 l89 6 20 -49
c21 -49 22 -49 70 -53 l50 -3 -6 29 c-3 16 -43 115 -89 220 l-83 191 -35 3
c-18 1 -39 -1 -45 -5z m82 -229 c6 -23 4 -24 -51 -24 -64 0 -63 -3 -23 87 l20
45 24 -42 c13 -23 27 -53 30 -66z"/>
<path d="M4032 2965 c-137 -60 -192 -210 -116 -318 16 -23 49 -55 73 -72 37
-26 51 -30 110 -30 61 0 73 3 120 35 28 19 51 39 51 43 0 5 -14 24 -32 42
l-31 34 -34 -29 c-50 -45 -100 -42 -153 8 -35 34 -40 44 -40 85 0 86 86 147
160 113 19 -8 42 -21 51 -27 14 -10 23 -6 52 24 41 40 41 40 -40 81 -59 29
-119 33 -171 11z"/>
<path d="M4546 2973 c-18 -18 -186 -400 -186 -423 0 -3 24 -5 52 -4 51 2 53 3
59 34 4 18 11 35 15 40 5 4 46 10 92 12 83 5 83 5 98 -23 8 -15 14 -35 14 -43
0 -10 15 -15 56 -18 31 -1 57 -1 59 2 3 4 -87 214 -159 373 -24 53 -28 57 -59
57 -19 0 -37 -3 -41 -7z m53 -170 c10 -21 22 -48 25 -60 7 -22 5 -23 -43 -23
-38 0 -51 4 -51 15 0 14 41 105 47 105 1 0 11 -17 22 -37z"/>
<path d="M6572 2963 c16 -19 104 -167 132 -220 11 -22 16 -58 16 -113 l0 -80
40 0 c22 0 43 0 48 1 4 1 5 43 4 94 -3 55 0 95 6 99 6 3 20 27 32 52 12 25 44
71 71 102 27 31 49 60 49 65 0 4 -24 7 -52 7 l-53 -1 -50 -76 c-56 -85 -45
-88 -115 25 l-40 62 -51 0 c-49 0 -51 -1 -37 -17z"/>
<path d="M4943 2753 l-2 -216 116 7 c137 7 158 17 221 98 58 74 65 123 29 201
-44 96 -107 127 -261 127 l-101 0 -2 -217z m227 112 c41 -21 60 -53 60 -100 0
-82 -51 -125 -149 -125 l-53 0 6 31 c3 17 6 71 6 120 l0 89 50 0 c28 0 64 -7
80 -15z"/>
<path d="M5500 2756 l0 -214 153 3 152 4 0 43 0 43 -105 5 c-113 5 -107 2
-102 60 2 18 9 20 92 20 l90 0 0 45 0 44 -92 3 -93 3 -3 29 c-2 16 0 32 5 37
4 4 52 9 105 11 l98 3 0 38 0 37 -150 0 -150 0 0 -214z"/>
<path d="M2258 2822 c-28 -5 -34 -50 -12 -73 18 -18 43 -19 396 -24 260 -4
384 -3 398 5 34 18 44 48 25 76 l-16 24 -387 -2 c-213 -1 -395 -4 -404 -6z"/>
<path d="M7192 2818 c-16 -16 -15 -50 1 -72 12 -16 43 -18 419 -19 321 0 410
2 422 12 19 16 21 62 4 79 -17 17 -829 17 -846 0z"/>
</g>
</svg>
